<svg width="256" height="48" viewBox="0 0 256 48" fill="black" xmlns="http://www.w3.org/2000/svg">
<path fill-rule="evenodd" clip-rule="evenodd" d="M77.9389 22.5133C77.9389 19.6794 76.9953 18.476 75.0097 18.476C73.0269 18.476 72.1047 19.6794 72.1047 22.5133V25.3238C72.1047 28.1577 73.0269 29.3611 75.0097 29.3611C76.9953 29.3611 77.9389 28.1577 77.9389 25.3238V22.5133ZM75.0098 32.9047C71.1123 32.9047 68.0173 30.8029 68.0173 25.3236V22.5131C68.0173 17.0338 71.1123 14.9326 75.0098 14.9326C78.9086 14.9326 82.0022 17.0338 82.0022 22.5131V25.3236C82.0022 30.8029 78.9086 32.9047 75.0098 32.9047Z" fill="black"/>
<path fill-rule="evenodd" clip-rule="evenodd" d="M66.6009 18.4749H62.7737V32.2186C62.7737 32.4793 62.561 32.6913 62.3015 32.6913H59.2066C58.9471 32.6913 58.7344 32.4793 58.7344 32.2186V18.4749H54.8844C54.6236 18.4749 54.4116 18.2864 54.4116 18.0257V15.5935C54.4116 15.3335 54.6236 15.145 54.8844 15.145H66.6009C66.8604 15.145 67.0971 15.3335 67.0971 15.5935V18.0257C67.0971 18.2864 66.8604 18.4749 66.6009 18.4749Z" fill="black"/>
<path fill-rule="evenodd" clip-rule="evenodd" d="M95.1123 18.4749H91.2857V32.2186C91.2857 32.4793 91.0731 32.6913 90.8129 32.6913H87.718C87.4585 32.6913 87.2465 32.4793 87.2465 32.2186V18.4749H83.3958C83.1364 18.4749 82.9224 18.2864 82.9224 18.0257V15.5935C82.9224 15.3335 83.1364 15.145 83.3958 15.145H95.1123C95.3718 15.145 95.6079 15.3335 95.6079 15.5935V18.0257C95.6079 18.2864 95.3718 18.4749 95.1123 18.4749Z" fill="black"/>
<path fill-rule="evenodd" clip-rule="evenodd" d="M111.721 15.641L108.201 30.2819C107.658 32.5495 105.933 32.9045 104.302 32.9045C102.672 32.9045 100.925 32.5495 100.38 30.2819L96.8606 15.641L96.8372 15.5227C96.8372 15.3108 97.0257 15.145 97.2618 15.145H100.547C100.782 15.145 100.971 15.3335 101.019 15.5701L103.971 29.1969C104.019 29.4562 104.088 29.5505 104.302 29.5505C104.515 29.5505 104.586 29.4562 104.633 29.1969L107.587 15.5701C107.633 15.3335 107.799 15.145 108.035 15.145H111.342C111.578 15.145 111.744 15.2867 111.744 15.5227L111.721 15.641Z" fill="black"/>
<path fill-rule="evenodd" clip-rule="evenodd" d="M118.382 32.9047C116.516 32.9047 115.121 32.6915 113.916 32.3846C113.68 32.3138 113.444 32.1714 113.444 31.912V29.5975C113.444 29.2672 113.633 29.1489 113.87 29.1489H113.94C114.908 29.2438 117.507 29.4324 118.428 29.4324C120.059 29.4324 120.53 28.9129 120.53 27.7798C120.53 27.0938 120.199 26.7168 118.972 25.9847L115.712 24.0487C113.515 22.7497 112.925 21.2616 112.925 19.5381C112.925 16.9395 114.388 14.9326 118.972 14.9326C120.695 14.9326 123.082 15.216 123.98 15.452C124.167 15.4988 124.333 15.6171 124.333 15.8772V18.2625C124.333 18.4758 124.239 18.6636 123.932 18.6636H123.885C123.224 18.6175 120.483 18.4042 118.877 18.4042C117.53 18.4042 117.035 18.8054 117.035 19.6551C117.035 20.3163 117.342 20.6238 118.616 21.3084L121.64 22.9382C124.097 24.2606 124.83 25.819 124.83 27.7323C124.83 30.2353 123.177 32.9047 118.382 32.9047Z" fill="black"/>
<path fill-rule="evenodd" clip-rule="evenodd" d="M36.5641 21.6589C35.9562 21.1388 30.9687 19.7302 26.8231 18.7528C26.7917 21.9524 26.9869 25.4294 27.4103 26.0351C28.0168 26.5546 33.007 27.9639 37.1539 28.9426C37.186 25.7437 36.9901 22.2653 36.5641 21.6589Z" fill="black"/>
<path fill-rule="evenodd" clip-rule="evenodd" d="M42.7935 29.9249C42.3822 30.0687 39.9613 29.604 37.1539 28.9415C37.1258 31.6939 36.9292 34.2403 36.5641 34.5779C35.5456 34.9329 22.1993 31.5581 21.1808 30.687C20.393 29.5619 20.393 18.497 21.1822 17.7676C21.5934 17.6253 24.0143 18.0906 26.8231 18.7524C26.8511 16 27.0464 13.4529 27.4122 13.1167C28.4301 12.7617 41.7736 16.1351 42.7935 17.0055C43.5859 18.1347 43.5839 29.1976 42.7935 29.9249ZM32.0045 8C23.1657 8 16 15.164 16 24.0007C16 32.8367 23.1657 40 32.0045 40C40.8447 40 48.0097 32.8367 48.0097 24.0007C48.0097 15.164 40.8447 8 32.0045 8Z" fill="black"/>
</svg>
