<svg width="64" height="64" viewBox="0 0 64 64" fill="black" xmlns="http://www.w3.org/2000/svg">
<path fill-rule="evenodd" clip-rule="evenodd" d="M42.7177 37.9249C42.3076 38.0687 39.8935 37.604 37.0941 36.9415C37.066 39.6939 36.87 42.2403 36.5059 42.5779C35.4903 42.9329 22.1818 39.5581 21.1662 38.687C20.3806 37.5619 20.3806 26.497 21.1675 25.7676C21.5776 25.6253 23.9916 26.0906 26.7924 26.7524C26.8204 24 27.0152 21.4529 27.3799 21.1167C28.3949 20.7617 41.7007 24.1351 42.7177 25.0055C43.5079 26.1347 43.5059 37.1976 42.7177 37.9249ZM31.9592 16C23.1454 16 16 23.164 16 32.0007C16 40.8367 23.1454 48 31.9592 48C40.7744 48 47.9191 40.8367 47.9191 32.0007C47.9191 23.164 40.7744 16 31.9592 16Z" fill="black"/>
<path fill-rule="evenodd" clip-rule="evenodd" d="M36.506 29.6589C35.8998 29.1388 30.9264 27.7302 26.7926 26.7528C26.7612 29.9524 26.9559 33.4294 27.3781 34.0351C27.9829 34.5546 32.959 35.9639 37.0942 36.9426C37.1262 33.7437 36.9308 30.2653 36.506 29.6589Z" fill="black"/>
</svg>